<?xml version="1.0" encoding="UTF-8"?>
<svg version="1.1" xmlns="http://www.w3.org/2000/svg" width="1284" height="370">
<path d="M0 0 C423.72 0 847.44 0 1284 0 C1284 122.1 1284 244.2 1284 370 C860.28 370 436.56 370 0 370 C0 247.9 0 125.8 0 0 Z " fill="#FEFEFE" transform="translate(0,0)"/>
<path d="M0 0 C11.14120709 8.29018767 20.77266503 18.13651018 27.3515625 30.48828125 C27.3515625 31.14828125 27.3515625 31.80828125 27.3515625 32.48828125 C28.5890625 32.44703125 29.8265625 32.40578125 31.1015625 32.36328125 C54.45888532 32.54434577 76.04488418 44.62461483 92.49609375 60.56640625 C109.52138804 78.69985579 117.96239435 101.45274183 117.7265625 126.17578125 C117.73816406 127.40361328 117.74976563 128.63144531 117.76171875 129.89648438 C117.73715469 137.58094262 116.79256785 144.20981975 114.3515625 151.48828125 C114.13258301 152.18993408 113.91360352 152.89158691 113.68798828 153.61450195 C108.92696215 168.50153564 101.23294193 180.26242612 90.3515625 191.48828125 C89.54525391 192.40480469 89.54525391 192.40480469 88.72265625 193.33984375 C75.54841377 207.80179414 52.53228089 217.4493531 33.27636719 218.61376953 C21.94083015 219.09763308 11.36471009 218.16589641 0.3515625 215.48828125 C-0.74414062 215.23304688 -1.83984375 214.9778125 -2.96875 214.71484375 C-25.18392223 208.76532588 -43.33387572 192.92054336 -55.3984375 173.7734375 C-56.6484375 171.48828125 -56.6484375 171.48828125 -56.6484375 169.48828125 C-57.69 169.47410156 -58.7315625 169.45992187 -59.8046875 169.4453125 C-85.099606 168.75177096 -106.67478473 157.30950179 -124.0234375 139.11328125 C-143.55736407 116.51019437 -148.6377863 90.65339491 -146.6484375 61.48828125 C-145.9780399 56.25394567 -144.53602929 51.41216377 -142.6484375 46.48828125 C-142.2978125 45.47636719 -141.9471875 44.46445313 -141.5859375 43.421875 C-136.83862742 30.77886516 -128.98653168 20.1219948 -119.6484375 10.48828125 C-119.11089844 9.87726563 -118.57335937 9.26625 -118.01953125 8.63671875 C-105.911498 -4.65480647 -87.73378665 -11.58289436 -70.6484375 -15.51171875 C-69.88273437 -15.70636719 -69.11703125 -15.90101562 -68.328125 -16.1015625 C-45.04305702 -19.66560352 -19.17577492 -13.60977284 0 0 Z " fill="#21277D" transform="translate(187.6484375,68.51171875)"/>
<path d="M0 0 C2.87724121 2.39529126 5.00891824 5.00759924 7.33203125 7.94140625 C5.99011719 8.6684375 5.99011719 8.6684375 4.62109375 9.41015625 C-3.06145233 13.64008828 -10.08477099 18.08718269 -16.66796875 23.94140625 C-17.78751953 24.91980469 -17.78751953 24.91980469 -18.9296875 25.91796875 C-26.10674076 32.60653147 -32.27105194 41.14757263 -36.66796875 49.94140625 C-35.98839111 50.19970215 -35.30881348 50.45799805 -34.60864258 50.72412109 C-31.19715432 52.1362988 -27.91189382 53.75712833 -24.6171875 55.41796875 C-23.95838089 55.74807953 -23.29957428 56.07819031 -22.62080383 56.41830444 C-20.53140648 57.46578609 -18.44342277 58.51605105 -16.35546875 59.56640625 C-14.93303538 60.28013264 -13.51051028 60.99367625 -12.08789062 61.70703125 C-8.61351819 63.44970937 -5.14041022 65.19488389 -1.66796875 66.94140625 C-1.36777832 66.15749512 -1.06758789 65.37358398 -0.75830078 64.56591797 C3.51269644 54.28530442 14.58270279 46.98611724 24.109375 42.203125 C36.657715 37.29025977 52.93539968 36.33861839 65.51953125 41.50390625 C81.07285406 48.77117935 90.89929705 59.10013007 97.33203125 74.94140625 C101.99626122 89.88767208 100.0812115 106.0957628 92.95703125 119.81640625 C84.84273544 133.97433732 73.31315761 140.96175982 58.00390625 146.046875 C43.0196584 149.69729283 28.27708965 146.3564113 15.20703125 138.50390625 C11.06172728 135.82430945 8.36536682 132.77895356 5.33203125 128.94140625 C6.22664063 128.45671875 7.12125 127.97203125 8.04296875 127.47265625 C15.72551483 123.24272422 22.74883349 118.79562981 29.33203125 112.94140625 C30.45158203 111.96300781 30.45158203 111.96300781 31.59375 110.96484375 C38.77080326 104.27628103 44.93511444 95.73523987 49.33203125 86.94140625 C48.45353516 86.6673999 47.57503906 86.39339355 46.66992188 86.11108398 C43.56833208 85.02421178 40.82584106 83.76153468 37.92578125 82.2265625 C36.43884766 81.44442383 36.43884766 81.44442383 34.921875 80.64648438 C33.39240234 79.8334082 33.39240234 79.8334082 31.83203125 79.00390625 C29.80098983 77.9318964 27.76974576 76.86027038 25.73828125 75.7890625 C24.79726562 75.29164551 23.85625 74.79422852 22.88671875 74.28173828 C20.05336824 72.79520404 17.20351326 71.35256265 14.33203125 69.94140625 C14.05359375 70.93140625 14.05359375 70.93140625 13.76953125 71.94140625 C8.60596455 82.71754546 -2.00675709 90.29777898 -12.66796875 94.94140625 C-13.44785156 95.29589844 -14.22773438 95.65039062 -15.03125 96.015625 C-26.07509957 99.89324329 -42.67234696 99.92483939 -53.36328125 95.12890625 C-54.12382813 94.73703125 -54.884375 94.34515625 -55.66796875 93.94140625 C-56.42851563 93.59078125 -57.1890625 93.24015625 -57.97265625 92.87890625 C-71.14190354 86.31706677 -79.97169639 74.90640873 -84.95703125 61.25 C-86.02177549 57.79250636 -86.53041336 54.53504084 -86.66796875 50.94140625 C-86.71953125 49.73097656 -86.77109375 48.52054688 -86.82421875 47.2734375 C-87.26433553 32.02823047 -83.49143761 19.05414083 -73.73828125 7.10546875 C-53.71224372 -13.82740822 -23.53606935 -15.3818406 0 0 Z " fill="#FDFDFE" transform="translate(166.66796875,101.05859375)"/>
<path d="M0 0 C7.1710751 5.37235028 12.25449908 13.14907615 14 22 C14.85042234 30.40609779 13.18403312 38.32388399 8.25 45.25 C1.90471084 52.96388094 -5.05197146 58.17265274 -15.21484375 59.3828125 C-25.83860641 59.75470618 -32.85093478 56.55778963 -40.98828125 49.92578125 C-47.5554619 43.63914036 -50.27084648 35.86927571 -50.5 26.875 C-50.35032782 17.90347335 -47.80276863 11.41121161 -41.94921875 4.62109375 C-29.99248471 -6.91088953 -14.31889526 -8.43132658 0 0 Z " fill="#242A7F" transform="translate(1089,84)"/>
<path d="M0 0 C0.66644531 0.41378906 1.33289063 0.82757813 2.01953125 1.25390625 C2.71691406 1.67800781 3.41429687 2.10210937 4.1328125 2.5390625 C11.25538679 7.35451292 15.75787292 13.97829281 18.01953125 22.25390625 C18.87208301 30.7100301 18.53963892 37.9511073 14.01953125 45.25390625 C13.60703125 45.95128906 13.19453125 46.64867187 12.76953125 47.3671875 C8.34859543 54.03626966 2.21590192 57.24694636 -4.85546875 60.62890625 C-13.73627449 62.4050674 -22.10463796 61.93174843 -29.98046875 57.25390625 C-36.38556495 52.5426433 -41.20907402 47.76245244 -43.98046875 40.25390625 C-44.59921875 38.86171875 -44.59921875 38.86171875 -45.23046875 37.44140625 C-47.49988926 27.79636907 -45.68361788 19.89284859 -40.98046875 11.25390625 C-38.40018389 7.6317909 -35.75382837 5.09525365 -32.10546875 2.56640625 C-31.28304688 1.98503906 -30.460625 1.40367187 -29.61328125 0.8046875 C-20.81845606 -4.37564722 -9.05860385 -4.82341244 0 0 Z " fill="#242A7F" transform="translate(456.98046875,198.74609375)"/>
<path d="M0 0 C0.66644531 0.41378906 1.33289063 0.82757813 2.01953125 1.25390625 C2.71691406 1.67800781 3.41429687 2.10210937 4.1328125 2.5390625 C11.25538679 7.35451292 15.75787292 13.97829281 18.01953125 22.25390625 C18.87208301 30.7100301 18.53963892 37.9511073 14.01953125 45.25390625 C13.60703125 45.95128906 13.19453125 46.64867187 12.76953125 47.3671875 C8.34859543 54.03626966 2.21590192 57.24694636 -4.85546875 60.62890625 C-13.73627449 62.4050674 -22.10463796 61.93174843 -29.98046875 57.25390625 C-36.38556495 52.5426433 -41.20907402 47.76245244 -43.98046875 40.25390625 C-44.59921875 38.86171875 -44.59921875 38.86171875 -45.23046875 37.44140625 C-47.49988926 27.79636907 -45.68361788 19.89284859 -40.98046875 11.25390625 C-38.40018389 7.6317909 -35.75382837 5.09525365 -32.10546875 2.56640625 C-31.28304688 1.98503906 -30.460625 1.40367188 -29.61328125 0.8046875 C-20.81845606 -4.37564722 -9.05860385 -4.82341244 0 0 Z " fill="#242A7F" transform="translate(470.98046875,81.74609375)"/>
<path d="M0 0 C17 0 17 0 21.1875 3.8125 C22.09187093 5.24716116 22.99175235 6.68532119 23.84765625 8.14941406 C26.35605597 12.17773396 29.34106323 15.89481236 32.1875 19.6875 C33.37134526 21.29347176 34.55242924 22.90148342 35.73046875 24.51171875 C36.49460083 25.55525513 36.49460083 25.55525513 37.27416992 26.61987305 C39.53268323 29.73463415 41.76373418 32.86922785 44 36 C44.33 24.12 44.66 12.24 45 0 C50.28 0 55.56 0 61 0 C61 20.46 61 40.92 61 62 C44 62 44 62 39.75 58.125 C38.47187554 56.10082099 37.22678761 54.05569816 36 52 C34.4028701 49.72679734 32.76280729 47.48854291 31.11816406 45.24951172 C28.96728195 42.31961264 26.85719619 39.3615248 24.74755859 36.40185547 C22.20396011 32.90591779 19.59401821 29.45869094 17 26 C16.67 37.88 16.34 49.76 16 62 C10.72 62 5.44 62 0 62 C0 41.54 0 21.08 0 0 Z " fill="#23297E" transform="translate(511,80)"/>
<path d="M0 0 C17 0 17 0 21.30078125 3.59375 C22.36323882 5.19174854 23.36617392 6.83060419 24.3125 8.5 C25.43458663 10.23671919 26.558317 11.97237734 27.68359375 13.70703125 C28.22741699 14.5882666 28.77124023 15.46950195 29.33154297 16.37744141 C31.94849693 20.49089173 34.90937923 24.32241263 37.875 28.1875 C39.56625 30.435625 41.2575 32.68375 43 35 C43.33 23.45 43.66 11.9 44 0 C49.28 0 54.56 0 60 0 C60 20.46 60 40.92 60 62 C43 62 43 62 38.69921875 58.44140625 C37.13525391 56.10473633 37.13525391 56.10473633 35.6875 53.5625 C35.13755371 52.71389404 34.58760742 51.86528809 34.02099609 50.9909668 C32.8812926 49.23146179 31.76373681 47.45741848 30.66845703 45.66992188 C28.54414529 42.27052573 26.23761474 39.02513002 23.89428711 35.77441406 C21.56747604 32.53672083 19.28830559 29.2650214 17 26 C16.67 37.88 16.34 49.76 16 62 C10.72 62 5.44 62 0 62 C0 41.54 0 21.08 0 0 Z " fill="#23297F" transform="translate(1125,80)"/>
<path d="M0 0 C5.135625 -0.061875 10.27125 -0.12375 15.5625 -0.1875 C17.16939697 -0.21481201 18.77629395 -0.24212402 20.43188477 -0.27026367 C21.71377686 -0.27775635 22.99566895 -0.28524902 24.31640625 -0.29296875 C25.62037354 -0.3086792 26.92434082 -0.32438965 28.26782227 -0.34057617 C33.36459899 0.12452513 37.2835996 1.47431075 41.1796875 4.9375 C41.73914063 5.618125 42.29859375 6.29875 42.875 7 C43.44992187 7.680625 44.02484375 8.36125 44.6171875 9.0625 C47.68058687 13.35472059 47.42699834 17.94992342 47 23 C46.02676877 28.28464558 43.97870944 31.29209307 39.875 34.7421875 C39.15054688 35.35690918 38.42609375 35.97163086 37.6796875 36.60498047 C36.84824219 37.29551514 36.84824219 37.29551514 36 38 C36.37809814 38.54938232 36.75619629 39.09876465 37.14575195 39.66479492 C38.86953012 42.17131583 40.59103348 44.67939097 42.3125 47.1875 C42.90740234 48.05181641 43.50230469 48.91613281 44.11523438 49.80664062 C44.69208984 50.64775391 45.26894531 51.48886719 45.86328125 52.35546875 C46.39219971 53.12528076 46.92111816 53.89509277 47.46606445 54.68823242 C49.05525378 57.083272 50.53939889 59.52482669 52 62 C45.98704767 63.21473784 39.85779305 64.31184358 34 62 C28.11811648 56.62390951 24.49562459 49.06144579 21 42 C20.67 41.34 20.34 40.68 20 40 C18.68 39.67 17.36 39.34 16 39 C16 46.59 16 54.18 16 62 C10.72 62 5.44 62 0 62 C0 41.54 0 21.08 0 0 Z " fill="#23297F" transform="translate(497,197)"/>
<path d="M0 0 C7.6725 -0.12375 7.6725 -0.12375 15.5 -0.25 C17.09779297 -0.28641602 18.69558594 -0.32283203 20.34179688 -0.36035156 C27.83875841 -0.41889207 33.62678423 -0.37659429 40 4 C45.41074868 9.69552493 46.46297321 14.24137306 46.3125 21.953125 C45.79627484 26.9863203 44.29550996 31.02922072 40.3984375 34.375 C38.75 35.5 38.75 35.5 36 37 C37.65159958 42.2144842 40.87825371 46.26016181 44.0625 50.625 C45.1609631 52.13554624 46.2561646 53.64847117 47.34765625 55.1640625 C47.83242432 55.82873535 48.31719238 56.4934082 48.81665039 57.17822266 C50 59 50 59 51 62 C44.96519103 63.35475303 38.85654435 64.5146811 33 62 C27.37710831 56.4678611 23.82435748 49.131744 20.34008789 42.13305664 C19.11792613 39.68648547 19.11792613 39.68648547 16 39 C16 46.59 16 54.18 16 62 C10.72 62 5.44 62 0 62 C0 41.54 0 21.08 0 0 Z " fill="#23297F" transform="translate(717,80)"/>
<path d="M0 0 C6.27 0 12.54 0 19 0 C24.16147954 13.60389957 29.21500933 27.24544852 34.17373657 40.92443848 C34.76686166 42.55984501 35.36108213 44.19485468 35.95639038 45.82946777 C36.79842257 48.14295245 37.63615756 50.45794722 38.47265625 52.7734375 C38.85639908 53.82502548 38.85639908 53.82502548 39.24789429 54.89785767 C41 59.77096599 41 59.77096599 41 62 C35.39 62 29.78 62 24 62 C21 53.25 21 53.25 21 51 C13.74 51.33 6.48 51.66 -1 52 C-1.99 55.3 -2.98 58.6 -4 62 C-9.61 62 -15.22 62 -21 62 C-19.54443877 54.56160375 -17.23950844 47.64218131 -14.6484375 40.52734375 C-14.22954254 39.3636879 -13.81064758 38.20003204 -13.37905884 37.00111389 C-12.04949548 33.31137017 -10.71237193 29.6244197 -9.375 25.9375 C-8.46763074 23.42553263 -7.56199343 20.91294516 -6.65625 18.40039062 C-4.4432426 12.26483679 -2.2234541 6.13177539 0 0 Z " fill="#23297F" transform="translate(638,197)"/>
<path d="M0 0 C5.28 0 10.56 0 16 0 C16.00410889 1.27641357 16.00821777 2.55282715 16.01245117 3.86791992 C16.03425079 8.61132994 16.08854946 13.35391145 16.15258789 18.09692383 C16.17576059 20.14827524 16.19016189 22.1997455 16.19555664 24.2512207 C16.20485143 27.2033895 16.24585364 30.15369086 16.29296875 33.10546875 C16.2890361 34.02023483 16.28510345 34.93500092 16.28105164 35.87748718 C16.38373324 40.37571005 16.54695377 42.39956298 19.3293457 46.0871582 C22.85388956 48.61159381 24.74133918 48.59770678 29 48 C33.30843924 46.41772398 33.30843924 46.41772398 36 43 C36.11726659 41.61182327 36.17681406 40.21851286 36.20532227 38.82568359 C36.22526749 37.96494232 36.24521271 37.10420105 36.26576233 36.21737671 C36.28247482 35.28712677 36.29918732 34.35687683 36.31640625 33.3984375 C36.33718735 32.44683746 36.35796844 31.49523743 36.37937927 30.51480103 C36.44488133 27.46827568 36.5037628 24.42166257 36.5625 21.375 C36.60568459 19.31249084 36.64929886 17.24999063 36.69335938 15.1875 C36.8005634 10.12509046 36.90182902 5.06259245 37 0 C42.28 0 47.56 0 53 0 C53.09926025 6.40457698 53.17165417 12.80870105 53.21972656 19.21386719 C53.23977764 21.39037888 53.26702571 23.56683714 53.30175781 25.74316406 C53.35056212 28.88099393 53.37303438 32.01810835 53.390625 35.15625 C53.41127014 36.12115356 53.43191528 37.08605713 53.45318604 38.0802002 C53.45551652 45.17949075 52.07827434 50.70831588 47.140625 55.98828125 C38.29886784 62.18116488 30.92418514 64.16857269 20 63 C12.3213791 61.11233903 5.76239835 57.26658981 1.42626953 50.56933594 C-0.52860788 45.67712305 -0.37399012 41.35027241 -0.29296875 36.1328125 C-0.28872391 35.09808807 -0.28447906 34.06336365 -0.28010559 32.99728394 C-0.26336996 29.70625319 -0.22572649 26.41584434 -0.1875 23.125 C-0.17244658 20.8880297 -0.15875933 18.65104977 -0.14648438 16.4140625 C-0.11348306 10.94247027 -0.06173541 5.47134043 0 0 Z " fill="#23297F" transform="translate(786,80)"/>
<path d="M0 0 C5.135625 -0.061875 10.27125 -0.12375 15.5625 -0.1875 C17.16939697 -0.21481201 18.77629395 -0.24212402 20.43188477 -0.27026367 C21.71377686 -0.27775635 22.99566895 -0.28524902 24.31640625 -0.29296875 C25.62037354 -0.3086792 26.92434082 -0.32438965 28.26782227 -0.34057617 C33.36459899 0.12452513 37.2835996 1.47431075 41.1796875 4.9375 C41.73914063 5.618125 42.29859375 6.29875 42.875 7 C43.44992187 7.680625 44.02484375 8.36125 44.6171875 9.0625 C47.65155495 13.3140431 47.57694226 17.98629046 47 23 C45.15481375 28.91513991 42.02857956 32.51078153 37 36 C32.62625293 38.26553805 28.4979385 38.23590065 23.6875 38.125 C19.8821875 38.063125 19.8821875 38.063125 16 38 C16 45.92 16 53.84 16 62 C10.72 62 5.44 62 0 62 C0 41.54 0 21.08 0 0 Z " fill="#24297F" transform="translate(348,197)"/>
<path d="M0 0 C4.26989476 2.99918671 7.17672911 6.02777941 9.67578125 10.609375 C9.67578125 11.269375 9.67578125 11.929375 9.67578125 12.609375 C7.74469162 13.64228341 5.80566325 14.66036172 3.86328125 15.671875 C2.78433594 16.24035156 1.70539062 16.80882813 0.59375 17.39453125 C-2.32421875 18.609375 -2.32421875 18.609375 -5.32421875 17.609375 C-6.99088542 15.94270833 -8.65755208 14.27604167 -10.32421875 12.609375 C-16.1709883 10.66045182 -22.26374137 10.61593055 -27.82421875 13.296875 C-31.2353879 16.45220647 -33.08314557 18.41962696 -33.60546875 23.1640625 C-33.78393359 28.65185626 -33.66936703 33.03767235 -30.32421875 37.609375 C-26.69275944 41.05926134 -23.7632347 41.90869533 -18.88671875 42.109375 C-13.58804526 41.91446467 -10.55959942 40.76338188 -6.32421875 37.609375 C-5.66421875 36.619375 -5.00421875 35.629375 -4.32421875 34.609375 C-0.56392025 35.19045132 2.20613157 36.26136996 5.48828125 38.171875 C6.27847656 38.62691406 7.06867187 39.08195312 7.8828125 39.55078125 C8.47449219 39.90011719 9.06617188 40.24945313 9.67578125 40.609375 C7.27118733 47.43226217 3.01227856 51.82073727 -3.35546875 55.234375 C-12.36378229 59.00928734 -20.28021909 60.34229117 -29.57421875 56.921875 C-39.2361245 52.51898124 -44.7935753 46.59708225 -49.19921875 36.859375 C-51.5347543 29.85276836 -51.52524452 21.63136409 -48.69921875 14.796875 C-47.95258251 13.37644509 -47.16015075 11.97915765 -46.32421875 10.609375 C-45.90011719 9.91070312 -45.47601562 9.21203125 -45.0390625 8.4921875 C-34.47241823 -7.10759373 -15.68186827 -9.38276488 0 0 Z " fill="#242A7F" transform="translate(911.32421875,84.390625)"/>
<path d="M0 0 C4.26989476 2.99918671 7.17672911 6.02777941 9.67578125 10.609375 C9.67578125 11.269375 9.67578125 11.929375 9.67578125 12.609375 C7.74469162 13.64228341 5.80566325 14.66036172 3.86328125 15.671875 C2.78433594 16.24035156 1.70539063 16.80882813 0.59375 17.39453125 C-2.32421875 18.609375 -2.32421875 18.609375 -5.32421875 17.609375 C-6.99088542 15.94270833 -8.65755208 14.27604167 -10.32421875 12.609375 C-16.1709883 10.66045182 -22.26374137 10.61593055 -27.82421875 13.296875 C-31.2353879 16.45220647 -33.08314557 18.41962696 -33.60546875 23.1640625 C-33.78393359 28.65185626 -33.66936703 33.03767235 -30.32421875 37.609375 C-26.69275944 41.05926134 -23.7632347 41.90869533 -18.88671875 42.109375 C-13.58804526 41.91446467 -10.55959942 40.76338188 -6.32421875 37.609375 C-5.66421875 36.619375 -5.00421875 35.629375 -4.32421875 34.609375 C-0.56392025 35.19045132 2.20613157 36.26136996 5.48828125 38.171875 C6.27847656 38.62691406 7.06867188 39.08195312 7.8828125 39.55078125 C8.47449219 39.90011719 9.06617188 40.24945313 9.67578125 40.609375 C7.27118733 47.43226217 3.01227856 51.82073727 -3.35546875 55.234375 C-12.36378229 59.00928734 -20.28021909 60.34229117 -29.57421875 56.921875 C-39.2361245 52.51898124 -44.7935753 46.59708225 -49.19921875 36.859375 C-51.5347543 29.85276836 -51.52524452 21.63136409 -48.69921875 14.796875 C-47.95258251 13.37644509 -47.16015075 11.97915765 -46.32421875 10.609375 C-45.90011719 9.91070312 -45.47601563 9.21203125 -45.0390625 8.4921875 C-34.47241823 -7.10759373 -15.68186827 -9.38276488 0 0 Z " fill="#242A7F" transform="translate(396.32421875,84.390625)"/>
<path d="M0 0 C3.67430597 2.06753551 6.22198846 4.18839074 8.5 7.8125 C7.42319498 8.94375022 6.33824365 10.06724919 5.25 11.1875 C4.64671875 11.81398438 4.0434375 12.44046875 3.421875 13.0859375 C1.5299412 14.78560161 -0.18201309 15.79709866 -2.5 16.8125 C-3.36625 16.1525 -4.2325 15.4925 -5.125 14.8125 C-8.71423463 12.68554615 -10.42694798 12.42459028 -14.5 12.8125 C-14.83 14.4625 -15.16 16.1125 -15.5 17.8125 C-11.01494643 20.18196226 -6.78537006 22.0626065 -1.9375 23.5625 C4.3770214 25.75809159 8.51424541 29.84099082 11.5 35.8125 C12.00178565 42.25851568 12.46229274 48.39736659 8.5 53.8125 C3.06142881 59.25107119 -2.65160981 61.88683118 -10.375 62.25 C-19.08641194 61.92933453 -25.59025979 58.27182735 -32.00390625 52.59375 C-33.63396523 50.65300093 -34.10333074 49.29032439 -34.5 46.8125 C-32.76343905 45.58493105 -31.01019623 44.38093147 -29.25 43.1875 C-28.27546875 42.51460937 -27.3009375 41.84171875 -26.296875 41.1484375 C-23.5 39.8125 -23.5 39.8125 -21.28515625 40.46875 C-19.5 41.8125 -19.5 41.8125 -17.1875 43.9375 C-13.74611395 46.33846701 -11.61279129 46.20049918 -7.5 45.8125 C-6.51 45.3175 -6.51 45.3175 -5.5 44.8125 C-5.5 43.1625 -5.5 41.5125 -5.5 39.8125 C-6.10585938 39.58175781 -6.71171875 39.35101563 -7.3359375 39.11328125 C-26.06316855 31.8240667 -26.06316855 31.8240667 -30.5 26.1015625 C-32.75780315 20.93330998 -32.26883715 15.28635764 -31.5 9.8125 C-29.08080136 4.61570292 -25.39637143 1.17232184 -20.1953125 -1.26953125 C-13.43530393 -3.57185301 -6.41926276 -3.02418601 0 0 Z " fill="#24297F" transform="translate(626.5,81.1875)"/>
<path d="M0 0 C15.18 0 30.36 0 46 0 C46 4.62 46 9.24 46 14 C41.05 14 36.1 14 31 14 C31 29.84 31 45.68 31 62 C25.72 62 20.44 62 15 62 C15 46.16 15 30.32 15 14 C10.05 14 5.1 14 0 14 C0 9.38 0 4.76 0 0 Z " fill="#242A7F" transform="translate(560,197)"/>
<path d="M0 0 C15.18 0 30.36 0 46 0 C46 4.62 46 9.24 46 14 C41.05 14 36.1 14 31 14 C31 29.84 31 45.68 31 62 C25.72 62 20.44 62 15 62 C15 46.16 15 30.32 15 14 C10.05 14 5.1 14 0 14 C0 9.38 0 4.76 0 0 Z " fill="#242A7F" transform="translate(936,80)"/>
<path d="M0 0 C15.18 0 30.36 0 46 0 C46 4.62 46 9.24 46 14 C41.05 14 36.1 14 31 14 C31 29.84 31 45.68 31 62 C25.72 62 20.44 62 15 62 C15 46.16 15 30.32 15 14 C10.05 14 5.1 14 0 14 C0 9.38 0 4.76 0 0 Z " fill="#23297F" transform="translate(653,80)"/>
<path d="M0 0 C5.28 0 10.56 0 16 0 C16 15.84 16 31.68 16 48 C22.6 48 29.2 48 36 48 C36 52.62 36 57.24 36 62 C24.12 62 12.24 62 0 62 C0 41.54 0 21.08 0 0 Z " fill="#23297E" transform="translate(696,197)"/>
<path d="M0 0 C5.28 0 10.56 0 16 0 C16 20.46 16 40.92 16 62 C10.72 62 5.44 62 0 62 C0 41.54 0 21.08 0 0 Z " fill="#262C80" transform="translate(1000,80)"/>
<path d="M0 0 C4.6090128 2.33443505 7.34049904 5.52724039 8.9296875 10.3515625 C9.79776642 16.01380453 9.20969487 20.54088503 5.9296875 25.3515625 C1.73336058 29.58228554 -1.91413316 31.48986141 -7.8828125 31.6640625 C-12.77214538 31.58589003 -15.39554491 30.76995095 -19.0703125 27.3515625 C-22.17004782 23.63516896 -24.36284215 20.14926816 -24.5703125 15.2265625 C-23.85423483 9.67696053 -22.27330865 6.1983875 -18.0703125 2.5390625 C-12.75313001 -1.33804973 -6.30433939 -1.97456668 0 0 Z " fill="#FBFBFD" transform="translate(1078.0703125,95.6484375)"/>
<path d="M0 0 C3.82414212 2.70488101 6.07909586 5.36228759 7.5625 9.8125 C8.09726918 15.78751722 8.07530722 20.7249861 4.5625 25.8125 C-0.31888163 30.21764928 -3.31458757 31.18457664 -9.765625 31.08203125 C-13.9725975 30.65764367 -17.15065144 29.49347785 -20.4375 26.8125 C-24.24110176 22.14932722 -25.09197277 17.0447082 -24.8203125 11.140625 C-24.01981389 6.27228649 -21.3734035 3.67992276 -17.875 0.4375 C-11.98663772 -2.34608944 -6.10645918 -2.10950408 0 0 Z " fill="#FCFCFD" transform="translate(451.4375,213.1875)"/>
<path d="M0 0 C3.82414212 2.70488101 6.07909586 5.36228759 7.5625 9.8125 C8.09726918 15.78751722 8.07530722 20.7249861 4.5625 25.8125 C-0.31888163 30.21764928 -3.31458757 31.18457664 -9.765625 31.08203125 C-13.9725975 30.65764367 -17.15065144 29.49347785 -20.4375 26.8125 C-24.24110176 22.14932722 -25.09197277 17.0447082 -24.8203125 11.140625 C-24.01981389 6.27228649 -21.3734035 3.67992276 -17.875 0.4375 C-11.98663772 -2.34608944 -6.10645918 -2.10950408 0 0 Z " fill="#FCFCFD" transform="translate(465.4375,96.1875)"/>
<path d="M0 0 C2.10304477 -0.1080023 4.20766909 -0.18558987 6.3125 -0.25 C8.07013672 -0.31960937 8.07013672 -0.31960937 9.86328125 -0.390625 C13 0 13 0 14.9296875 1.8203125 C16.43506698 4.88601233 15.91242998 6.77140161 15 10 C13 12 13 12 9.9609375 12.1953125 C8.77757812 12.17210937 7.59421875 12.14890625 6.375 12.125 C5.18648437 12.10695312 3.99796875 12.08890625 2.7734375 12.0703125 C1.85820313 12.04710937 0.94296875 12.02390625 0 12 C0 8.04 0 4.08 0 0 Z " fill="#F9F9FB" transform="translate(513,211)"/>
<path d="M0 0 C11.47897324 -0.37028946 11.47897324 -0.37028946 13.86328125 1.32421875 C15.63321345 3.93350024 15.38278316 5.9377347 15 9 C13.86328125 10.67578125 13.86328125 10.67578125 12 12 C7.96740923 12.40487859 4.06287095 12.13106035 0 12 C0 8.04 0 4.08 0 0 Z " fill="#FDFDFE" transform="translate(733,94)"/>
<path d="M0 0 C2.12472576 -0.05386629 4.24983652 -0.09273071 6.375 -0.125 C7.55835938 -0.14820313 8.74171875 -0.17140625 9.9609375 -0.1953125 C13 0 13 0 15 2 C15.5513308 7.18250951 15.5513308 7.18250951 13.8671875 9.6796875 C11.16566496 11.58996913 9.07776508 11.29283113 5.8125 11.1875 C4.72582031 11.16042969 3.63914062 11.13335937 2.51953125 11.10546875 C1.27236328 11.05326172 1.27236328 11.05326172 0 11 C0 7.37 0 3.74 0 0 Z " fill="#F8F8FB" transform="translate(364,211)"/>
<path d="M0 0 C2 1 2 1 3.2890625 4.45703125 C3.74239729 5.90636923 4.18735478 7.35834744 4.625 8.8125 C4.85445312 9.53759766 5.08390625 10.26269531 5.3203125 11.00976562 C6.39846378 14.51696606 7 17.30136712 7 21 C2.71 21 -1.58 21 -6 21 C-4.27806003 13.8662487 -2.42393534 6.92552955 0 0 Z " fill="#F2F2F7" transform="translate(647,214)"/>
</svg>
